<svg width="24" height="24" viewBox="0 0 24 24" fill="none" xmlns="http://www.w3.org/2000/svg">
<path fill-rule="evenodd" clip-rule="evenodd" d="M1.59436 0.204178C1.19508 -0.104506 0.628651 -0.0618174 0.276646 0.322984C-0.104693 0.739851 -0.0899723 1.40037 0.309526 1.79829L10.5517 12L0.309526 22.2017C-0.0899717 22.5996 -0.104694 23.2601 0.276646 23.677C0.628651 24.0618 1.19508 24.1045 1.59436 23.7958L1.69048 23.7113L12 13.4426L22.3095 23.7113L22.4056 23.7958C22.8049 24.1045 23.3713 24.0618 23.7234 23.677C24.1047 23.2601 24.09 22.5996 23.6905 22.2017L13.4483 12L23.6905 1.79829C24.09 1.40037 24.1047 0.739851 23.7234 0.322984C23.3713 -0.0618174 22.8049 -0.104506 22.4056 0.204178L22.3095 0.288674L12 10.5574L1.69048 0.288674L1.59436 0.204178Z" fill="white"/>
</svg>
