<svg width="40" height="40" viewBox="0 0 40 40" fill="none" xmlns="http://www.w3.org/2000/svg">
<circle cx="20" cy="20" r="19.25" stroke="white" stroke-width="1.5"/>
<path d="M20.75 13C20.75 12.5858 20.4142 12.25 20 12.25C19.5858 12.25 19.25 12.5858 19.25 13L20.75 13ZM19.4697 27.5303C19.7626 27.8232 20.2374 27.8232 20.5303 27.5303L25.3033 22.7574C25.5962 22.4645 25.5962 21.9896 25.3033 21.6967C25.0104 21.4038 24.5355 21.4038 24.2426 21.6967L20 25.9393L15.7574 21.6967C15.4645 21.4038 14.9896 21.4038 14.6967 21.6967C14.4038 21.9896 14.4038 22.4645 14.6967 22.7574L19.4697 27.5303ZM19.25 13L19.25 27L20.75 27L20.75 13L19.25 13Z" fill="white"/>
</svg>
