<svg width="30" height="22" viewBox="0 0 30 22" fill="none" xmlns="http://www.w3.org/2000/svg">
<g id="envelope (1)">
<path id="Shape" fill-rule="evenodd" clip-rule="evenodd" d="M3.66853 0H26.3377C28.3612 0 30.0062 1.59108 30 3.54105V18.4649C30 20.4149 28.355 22 26.3315 22H3.66853C1.64494 22 0 20.4149 0 18.4649V3.53507C0 1.5851 1.64494 0 3.66853 0ZM26.3377 20.385C27.4364 20.385 28.3302 19.5237 28.3302 18.4649H28.324V3.54105C28.324 2.48233 27.4302 1.62099 26.3315 1.62099H3.66853C2.56983 1.62099 1.67598 2.48233 1.67598 3.54105V18.4649C1.67598 19.5237 2.56983 20.385 3.66853 20.385H26.3377Z" fill="#EC597C"/>
<path id="Shape_2" d="M18.9137 10.6264L26.2474 4.37728C26.5886 4.08251 26.6196 3.5814 26.3094 3.25126C25.9992 2.92701 25.4718 2.89753 25.1244 3.1923L15.011 11.8173L13.038 10.143C13.0318 10.1371 13.0256 10.1312 13.0256 10.1253C12.9822 10.084 12.9387 10.0487 12.8891 10.0133L4.86051 3.18641C4.51306 2.89164 3.98568 2.92111 3.67545 3.25126C3.36523 3.5814 3.39625 4.08251 3.7437 4.37728L11.1643 10.6795L3.77473 17.2529C3.43968 17.5535 3.42107 18.0546 3.7375 18.3789C3.90502 18.5439 4.12838 18.6324 4.35174 18.6324C4.55649 18.6324 4.76124 18.5616 4.92256 18.4201L12.4238 11.7524L14.4588 13.4798C14.6202 13.6154 14.8187 13.6802 15.0173 13.6802C15.2158 13.6802 15.4205 13.6095 15.5757 13.4739L17.6666 11.6935L25.1244 18.426C25.2857 18.5734 25.4966 18.6442 25.7014 18.6442C25.9247 18.6442 26.1419 18.5616 26.3094 18.3966C26.6258 18.0782 26.6134 17.5712 26.2784 17.2705L18.9137 10.6264Z" fill="#EC597C"/>
</g>
</svg>
