<svg width="28" height="35" viewBox="0 0 28 35" fill="none" xmlns="http://www.w3.org/2000/svg">
<path d="M22.9144 0.688354C23.8427 0.688354 24.605 1.43677 24.6869 2.39186L24.6941 2.56244V6.07634H23.3593V2.56244C23.3593 2.33602 23.2068 2.14712 23.004 2.10343L22.9144 2.09392H1.77976C1.56474 2.09392 1.38535 2.25452 1.34386 2.46801L1.33482 2.56244V31.845C1.33482 32.0714 1.48733 32.2603 1.69009 32.304L1.77976 32.3135H5.1168V33.7191H1.77976C0.851431 33.7191 0.0891104 32.9706 0.00727328 32.0156L0 31.845V2.56244C0 1.58491 0.710747 0.782188 1.61776 0.696013L1.77976 0.688354H22.9144Z" fill="white"/>
<path d="M10.9159 13.4267H21.3716C21.7343 13.4267 22.0299 13.7489 22.0299 14.1484C22.0299 14.548 21.7343 14.8702 21.3716 14.8702H10.9159C10.5532 14.8702 10.2576 14.548 10.2576 14.1484C10.2576 13.7489 10.5532 13.4267 10.9159 13.4267Z" fill="white"/>
<path d="M10.9159 19.1244H21.3716C21.7343 19.1244 22.0299 19.4468 22.0299 19.8466C22.0299 20.2464 21.7343 20.5688 21.3716 20.5688H10.9159C10.5532 20.5688 10.2576 20.2464 10.2576 19.8466C10.2576 19.4468 10.5532 19.1244 10.9159 19.1244Z" fill="white"/>
<path d="M10.9159 24.8223H21.3716C21.7343 24.8223 22.0299 25.1447 22.0299 25.5444C22.0299 25.9442 21.7343 26.2666 21.3716 26.2666H10.9159C10.5532 26.2666 10.2576 25.9442 10.2576 25.5444C10.2576 25.1447 10.5532 24.8223 10.9159 24.8223Z" fill="white"/>
<path fill-rule="evenodd" clip-rule="evenodd" d="M6.37339 4.88H25.9141L26.1147 4.89053C27.1715 5.00206 28 5.98523 28 7.18445V32.5079L27.9904 32.7301C27.8892 33.8997 26.997 34.8124 25.9141 34.8124H6.37339L6.17273 34.8018C5.11598 34.6903 4.28748 33.7072 4.28748 32.5079V7.18445L4.29704 6.96228C4.39826 5.79263 5.29046 4.88 6.37339 4.88ZM26.6915 7.04597C26.6307 6.6377 26.3069 6.32428 25.9141 6.32428H6.37341L6.24529 6.33559C5.87022 6.40254 5.58569 6.75862 5.58569 7.18527V32.5088L5.59597 32.6481C5.6568 33.0564 5.98061 33.3698 6.37341 33.3698H25.9141L26.0422 33.3585C26.4173 33.2915 26.7018 32.9355 26.7018 32.5088V7.18527L26.6915 7.04597Z" fill="white"/>
</svg>
