<svg width="139" height="51" viewBox="0 0 139 51" fill="none" xmlns="http://www.w3.org/2000/svg">
<path d="M50.6469 6.3371L48.2047 8.68879C47.5292 7.94142 46.6984 7.34232 45.7673 6.93119C44.8361 6.52006 43.8258 6.30628 42.8034 6.30398C41.9722 6.28073 41.1448 6.42264 40.3717 6.72104C39.5986 7.01944 38.8961 7.46807 38.3069 8.03959C37.7187 8.58076 37.2533 9.23574 36.9405 9.96246C36.6277 10.6892 36.4745 11.4716 36.4906 12.2594C36.4772 13.0709 36.6372 13.8762 36.9604 14.6243C37.2836 15.3724 37.763 16.0469 38.3681 16.605C38.9824 17.1893 39.7105 17.648 40.5097 17.9541C41.3088 18.2601 42.1627 18.4073 43.0211 18.387C44.0807 18.4201 45.1288 18.1655 46.0483 17.6517C46.9304 17.0949 47.622 16.2945 48.0347 15.353H42.7626V12.1865H51.919V12.9284C51.9143 14.4798 51.487 16.0022 50.6809 17.3403C49.923 18.6616 48.814 19.7599 47.4701 20.5201C46.0593 21.2767 44.468 21.6561 42.8579 21.6197C41.0946 21.6482 39.3536 21.2329 37.8035 20.4141C36.33 19.6174 35.1143 18.4359 34.2933 17.0025C33.4358 15.5475 32.9898 13.8972 33.0008 12.2196C32.9697 9.95608 33.8233 7.76565 35.3886 6.09199C36.308 5.08166 37.4449 4.28119 38.7183 3.74762C39.9917 3.21404 41.3703 2.96048 42.7558 3.00499C44.2834 2.98931 45.7978 3.28021 47.2048 3.85955C48.5191 4.43913 49.6923 5.28355 50.6469 6.3371Z" fill="url(#paint0_linear)"/>
<path d="M66.9732 15.5583H56.089C56.211 16.4249 56.6567 17.2173 57.3407 17.7841C58.0797 18.3545 59.0039 18.6482 59.9461 18.6122C60.5494 18.6203 61.1482 18.5102 61.7068 18.2882C62.2654 18.0663 62.7725 17.7372 63.1978 17.3204L66.0481 18.6453C65.4025 19.5718 64.5244 20.322 63.4971 20.8248C62.3918 21.3143 61.1872 21.5543 59.9733 21.527C59.0224 21.5622 58.0741 21.4082 57.1863 21.0745C56.2986 20.7408 55.49 20.2343 54.8101 19.586C54.1547 18.947 53.6405 18.1843 53.2989 17.3448C52.9573 16.5052 52.7956 15.6064 52.8237 14.7038C52.7955 13.7878 52.9562 12.8756 53.2962 12.0211C53.6362 11.1666 54.1486 10.3872 54.8033 9.72882C55.4479 9.07956 56.224 8.56768 57.0823 8.2256C57.9406 7.88351 58.8625 7.71867 59.7896 7.74148C60.7456 7.70743 61.6984 7.86641 62.5881 8.20843C63.4779 8.55045 64.2853 9.06811 64.9596 9.72882C65.6332 10.4275 66.156 11.2506 66.4972 12.1495C66.8384 13.0484 66.991 14.0048 66.946 14.9621L66.9732 15.5583ZM63.5719 12.9682C63.353 12.2453 62.8875 11.6167 62.2522 11.1862C61.5817 10.735 60.7813 10.503 59.9665 10.5237C59.0764 10.5054 58.2054 10.7757 57.4903 11.2922C56.9381 11.7474 56.5123 12.3306 56.2522 12.988L63.5719 12.9682Z" fill="url(#paint1_linear)"/>
<path d="M68.4428 8.05941H71.8441V9.3843C72.4638 8.8409 73.1659 8.394 73.9257 8.05941C74.5321 7.81583 75.1814 7.68982 75.8373 7.68844C76.47 7.67688 77.0984 7.79206 77.6835 8.0268C78.2686 8.26155 78.7979 8.61086 79.2386 9.05308C79.6601 9.51827 79.9814 10.0611 80.1835 10.6494C80.3857 11.2376 80.4645 11.8594 80.4155 12.4779V21.1361H77.0414V15.4059C77.0872 14.361 77.0119 13.3143 76.8169 12.2858C76.7127 11.8212 76.4487 11.4052 76.0686 11.1067C75.6771 10.8221 75.196 10.6792 74.7081 10.7026C74.0565 10.6912 73.4264 10.9291 72.953 11.365C72.4293 11.8678 72.0716 12.5113 71.9258 13.2132C71.8 14.0908 71.7522 14.9774 71.7829 15.863V21.1228H68.3816L68.4428 8.05941Z" fill="url(#paint2_linear)"/>
<path d="M82.7489 21.1692V3.44879H85.606C86.83 3.40418 88.0549 3.50878 89.2522 3.76014C90.2689 3.99469 91.1805 4.54308 91.8509 5.32351C92.4941 6.08311 92.8368 7.04192 92.8168 8.0263C92.8288 8.66428 92.6768 9.29504 92.3747 9.86126C92.0285 10.4769 91.5421 11.0071 90.9529 11.4114C91.9247 11.8124 92.7631 12.4683 93.3747 13.306C93.8993 14.1108 94.1668 15.0491 94.1434 16.0021C94.1545 16.9647 93.8805 17.9099 93.3543 18.7248C92.8642 19.5107 92.157 20.1466 91.3135 20.5598C90.2244 21.0171 89.0423 21.2256 87.8577 21.1692H82.7489ZM86.2115 6.66827V10.3978H86.9734C87.6425 10.4495 88.3085 10.2663 88.8509 9.88113C89.0558 9.706 89.2179 9.48832 89.325 9.24412C89.4322 8.99992 89.4817 8.73543 89.4699 8.47012C89.4813 8.22062 89.4346 7.97186 89.3333 7.74242C89.232 7.51298 89.0787 7.30882 88.8849 7.14523C88.374 6.77691 87.7428 6.60263 87.1094 6.65503L86.2115 6.66827ZM86.2115 13.412V17.9563H87.0822C88.5176 17.9563 89.4903 17.7775 89.9869 17.4264C90.2347 17.2505 90.4334 17.0173 90.5653 16.7478C90.6971 16.4783 90.7579 16.181 90.742 15.8829C90.7561 15.5342 90.683 15.1874 90.529 14.8724C90.3749 14.5574 90.1446 14.2835 89.8577 14.0744C88.9797 13.5565 87.9551 13.3245 86.9326 13.412H86.2115Z" fill="url(#paint3_linear)"/>
<path d="M102.129 7.72157C103.387 7.71944 104.623 8.03926 105.714 8.64899C106.796 9.24764 107.695 10.1149 108.32 11.1622C108.945 12.2096 109.273 13.3996 109.272 14.611C109.276 15.8298 108.947 17.0277 108.32 18.0822C107.717 19.1402 106.825 20.0141 105.742 20.6061C104.647 21.2176 103.405 21.5332 102.143 21.5203C101.224 21.5363 100.311 21.3681 99.4616 21.0263C98.612 20.6844 97.8436 20.1761 97.2042 19.533C96.5327 18.8683 96.0055 18.0787 95.6539 17.2115C95.3023 16.3442 95.1335 15.4169 95.1577 14.4847C95.1818 13.5526 95.3983 12.6348 95.7943 11.7858C96.1903 10.9369 96.7577 10.1742 97.4627 9.54329C98.7196 8.37396 100.391 7.72148 102.129 7.72157ZM102.184 10.8218C101.695 10.8101 101.209 10.8991 100.757 11.0829C100.306 11.2666 99.8996 11.5411 99.5647 11.8883C99.2133 12.2518 98.9398 12.6797 98.7599 13.1471C98.5801 13.6146 98.4975 14.1122 98.5171 14.611C98.4721 15.6328 98.8438 16.6306 99.5511 17.3866C99.8869 17.7342 100.295 18.0084 100.747 18.1911C101.2 18.3738 101.687 18.4609 102.177 18.4465C102.668 18.4584 103.156 18.3696 103.61 18.1859C104.063 18.0022 104.472 17.7276 104.81 17.38C105.485 16.6137 105.856 15.6373 105.856 14.6276C105.856 13.6178 105.485 12.6414 104.81 11.8751C104.471 11.5311 104.063 11.2597 103.611 11.0783C103.159 10.8969 102.673 10.8096 102.184 10.8218Z" fill="url(#paint4_linear)"/>
<path d="M120.714 3.00516H124.116V21.1694H120.714V19.7849C120.143 20.3439 119.47 20.7934 118.728 21.1098C118.044 21.384 117.311 21.5215 116.572 21.5139C115.718 21.5137 114.874 21.3364 114.097 20.9937C113.319 20.651 112.625 20.1509 112.061 19.5266C110.788 18.2007 110.104 16.439 110.157 14.6245C110.084 12.7959 110.745 11.0116 112 9.64949C112.557 9.03126 113.245 8.53772 114.017 8.20269C114.788 7.86766 115.625 7.69909 116.47 7.70853C117.253 7.7048 118.029 7.85813 118.748 8.15898C119.487 8.47051 120.155 8.92072 120.714 9.48388V3.00516ZM117.163 10.7624C116.676 10.7488 116.19 10.8375 115.741 11.0227C115.291 11.2079 114.888 11.4851 114.558 11.8356C113.851 12.5897 113.477 13.5843 113.517 14.6046C113.485 15.6352 113.866 16.6376 114.578 17.4001C114.905 17.7545 115.306 18.0362 115.755 18.226C116.203 18.4158 116.688 18.5091 117.177 18.4998C117.669 18.5121 118.159 18.4221 118.613 18.236C119.067 18.0498 119.475 17.7716 119.81 17.42C120.526 16.6471 120.902 15.6314 120.857 14.5913C120.881 14.0851 120.801 13.5792 120.621 13.1036C120.441 12.6281 120.165 12.1924 119.81 11.8223C119.469 11.4722 119.055 11.1967 118.597 11.0139C118.138 10.8312 117.645 10.7455 117.15 10.7624H117.163Z" fill="url(#paint5_linear)"/>
<path d="M124.728 8.05939H128.184L131.68 16.287L135.537 8.05939H139L130.572 25.9719H127.082L129.844 20.1954L124.728 8.05939Z" fill="url(#paint6_linear)"/>
<path d="M41.223 47.408H36.935C36.8603 47.6213 36.7803 47.856 36.695 48.112C36.6096 48.3573 36.5243 48.6027 36.439 48.848C36.3643 49.0827 36.2896 49.3067 36.215 49.52C36.1403 49.7227 36.0816 49.8933 36.039 50.032C35.8896 50.096 35.7136 50.128 35.511 50.128C35.3403 50.128 35.1856 50.0853 35.047 50C34.919 49.904 34.855 49.7547 34.855 49.552C34.855 49.456 34.871 49.36 34.903 49.264C34.935 49.1573 34.9723 49.0453 35.015 48.928C35.175 48.48 35.3776 47.904 35.623 47.2C35.879 46.496 36.151 45.7493 36.439 44.96C36.7376 44.16 37.0363 43.36 37.335 42.56C37.6443 41.7493 37.927 41.024 38.183 40.384C38.2683 40.3413 38.3963 40.2987 38.567 40.256C38.7376 40.2133 38.9136 40.192 39.095 40.192C39.3083 40.192 39.511 40.224 39.703 40.288C39.9056 40.352 40.0336 40.4587 40.087 40.608C40.343 41.2267 40.615 41.936 40.903 42.736C41.2016 43.5253 41.5003 44.336 41.799 45.168C42.0976 46 42.3803 46.8213 42.647 47.632C42.9243 48.432 43.1696 49.1573 43.383 49.808C43.2976 49.904 43.1963 49.9787 43.079 50.032C42.9616 50.096 42.8283 50.128 42.679 50.128C42.4763 50.128 42.3216 50.0853 42.215 50C42.1083 49.904 42.0176 49.7493 41.943 49.536L41.223 47.408ZM39.079 41.28C38.9616 41.6 38.8283 41.968 38.679 42.384C38.5296 42.7893 38.375 43.216 38.215 43.664C38.055 44.112 37.895 44.5653 37.735 45.024C37.575 45.4827 37.4256 45.92 37.287 46.336H40.887C40.727 45.856 40.5616 45.376 40.391 44.896C40.2203 44.4053 40.055 43.936 39.895 43.488C39.7456 43.04 39.6016 42.6293 39.463 42.256C39.335 41.872 39.2283 41.5467 39.143 41.28H39.079Z" fill="#EC597C"/>
<path d="M56.8037 47.472C56.7291 47.5253 56.6277 47.5733 56.4997 47.616C56.3824 47.6587 56.2491 47.68 56.0997 47.68C55.9291 47.68 55.7744 47.6533 55.6357 47.6C55.5077 47.5467 55.4171 47.4613 55.3637 47.344C54.7877 46.1493 54.2917 45.056 53.8757 44.064C53.4597 43.072 53.1237 42.2507 52.8677 41.6H52.8037C52.7717 42.4 52.7344 43.1467 52.6917 43.84C52.6597 44.5227 52.6224 45.1947 52.5797 45.856C52.5371 46.5067 52.4944 47.168 52.4517 47.84C52.4091 48.512 52.3664 49.232 52.3237 50C52.2597 50.0213 52.1744 50.0427 52.0677 50.064C51.9717 50.0853 51.8651 50.096 51.7477 50.096C51.5131 50.096 51.3477 50.048 51.2517 49.952C51.1557 49.856 51.1077 49.7173 51.1077 49.536C51.1077 49.4293 51.1131 49.2 51.1237 48.848C51.1451 48.496 51.1717 48.0693 51.2037 47.568C51.2357 47.0667 51.2677 46.512 51.2997 45.904C51.3424 45.296 51.3851 44.6773 51.4277 44.048C51.4811 43.4187 51.5291 42.8 51.5717 42.192C51.6251 41.584 51.6731 41.0293 51.7157 40.528C51.8011 40.4533 51.9237 40.384 52.0837 40.32C52.2437 40.256 52.4251 40.224 52.6277 40.224C53.1184 40.224 53.4597 40.4213 53.6517 40.816C53.8544 41.232 54.0571 41.6747 54.2597 42.144C54.4731 42.6027 54.6811 43.072 54.8837 43.552C55.0971 44.032 55.2997 44.5067 55.4917 44.976C55.6944 45.4453 55.8864 45.8933 56.0677 46.32H56.1317C56.3664 45.7547 56.6011 45.2 56.8357 44.656C57.0704 44.1013 57.2997 43.568 57.5237 43.056C57.7477 42.544 57.9611 42.064 58.1637 41.616C58.3664 41.168 58.5477 40.7573 58.7077 40.384C58.8037 40.3307 58.9264 40.2933 59.0757 40.272C59.2251 40.24 59.3637 40.224 59.4917 40.224C59.9931 40.224 60.2811 40.3947 60.3557 40.736C60.3984 40.928 60.4464 41.248 60.4997 41.696C60.5531 42.1333 60.6064 42.64 60.6597 43.216C60.7131 43.792 60.7611 44.4107 60.8037 45.072C60.8571 45.7333 60.9051 46.3733 60.9477 46.992C60.9904 47.6 61.0277 48.1653 61.0597 48.688C61.0917 49.2 61.1184 49.6053 61.1397 49.904C60.9477 50.032 60.7237 50.096 60.4677 50.096C60.3077 50.096 60.1637 50.0587 60.0357 49.984C59.9184 49.8987 59.8491 49.7493 59.8277 49.536C59.7744 48.7573 59.7264 47.984 59.6837 47.216C59.6411 46.448 59.5984 45.7173 59.5557 45.024C59.5237 44.3307 59.4917 43.696 59.4597 43.12C59.4277 42.5333 59.4011 42.0373 59.3797 41.632H59.3157C59.1984 41.9307 59.0597 42.2667 58.8997 42.64C58.7504 43.0133 58.5691 43.4347 58.3557 43.904C58.1531 44.3733 57.9237 44.9067 57.6677 45.504C57.4117 46.0907 57.1237 46.7467 56.8037 47.472Z" fill="#EC597C"/>
<path d="M70.4561 50C70.2428 50 70.0721 49.936 69.9441 49.808C69.8161 49.68 69.7521 49.5093 69.7521 49.296V40.976C69.7521 40.7627 69.8161 40.592 69.9441 40.464C70.0721 40.336 70.2428 40.272 70.4561 40.272H75.7681C75.8001 40.3253 75.8321 40.4 75.8641 40.496C75.8961 40.5813 75.9121 40.6773 75.9121 40.784C75.9121 40.9653 75.8694 41.1093 75.7841 41.216C75.6988 41.3227 75.5761 41.376 75.4161 41.376H71.0481V44.464H75.2721C75.3041 44.5173 75.3361 44.592 75.3681 44.688C75.4001 44.7733 75.4161 44.8693 75.4161 44.976C75.4161 45.1573 75.3734 45.3013 75.2881 45.408C75.2028 45.504 75.0801 45.552 74.9201 45.552H71.0481V48.912H75.8481C75.8801 48.9653 75.9121 49.0347 75.9441 49.12C75.9761 49.2053 75.9921 49.3067 75.9921 49.424C75.9921 49.6053 75.9494 49.7493 75.8641 49.856C75.7788 49.952 75.6561 50 75.4961 50H70.4561Z" fill="#EC597C"/>
<path d="M85.5641 49.968C85.5001 49.9893 85.4148 50.0107 85.3081 50.032C85.2014 50.064 85.0841 50.08 84.9561 50.08C84.4868 50.08 84.2521 49.8827 84.2521 49.488V40.976C84.2521 40.8053 84.2948 40.6773 84.3801 40.592C84.4654 40.496 84.5988 40.4213 84.7801 40.368C85.0894 40.272 85.4681 40.2027 85.9161 40.16C86.3748 40.1173 86.8174 40.096 87.2441 40.096C88.5881 40.096 89.5854 40.368 90.2361 40.912C90.8974 41.4453 91.2281 42.208 91.2281 43.2C91.2281 43.936 91.0361 44.5547 90.6521 45.056C90.2788 45.5573 89.7081 45.9147 88.9401 46.128C89.2068 46.4693 89.4734 46.8107 89.7401 47.152C90.0068 47.4933 90.2574 47.8187 90.4921 48.128C90.7374 48.4267 90.9508 48.6987 91.1321 48.944C91.3241 49.1893 91.4734 49.3813 91.5801 49.52C91.5374 49.7013 91.4414 49.8453 91.2921 49.952C91.1534 50.0587 91.0094 50.112 90.8601 50.112C90.6788 50.112 90.5294 50.0693 90.4121 49.984C90.2948 49.8987 90.1721 49.7653 90.0441 49.584L87.7081 46.32H85.5641V49.968ZM87.3881 45.232C88.1774 45.232 88.7961 45.0613 89.2441 44.72C89.6921 44.3787 89.9161 43.872 89.9161 43.2C89.9161 42.528 89.6814 42.0267 89.2121 41.696C88.7428 41.3547 88.0708 41.184 87.1961 41.184C86.9081 41.184 86.6148 41.2 86.3161 41.232C86.0281 41.2533 85.7721 41.2853 85.5481 41.328V45.232H87.3881Z" fill="#EC597C"/>
<path d="M100.986 49.968C100.933 49.9893 100.853 50.0107 100.746 50.032C100.639 50.064 100.522 50.08 100.394 50.08C99.9246 50.08 99.69 49.8827 99.69 49.488V40.304C99.7433 40.2827 99.8233 40.2613 99.93 40.24C100.047 40.208 100.17 40.192 100.298 40.192C100.757 40.192 100.986 40.3893 100.986 40.784V49.968Z" fill="#EC597C"/>
<path d="M116.965 41.344C116.965 41.4933 116.917 41.6213 116.821 41.728C116.736 41.8347 116.635 41.9147 116.517 41.968C116.24 41.776 115.915 41.5947 115.541 41.424C115.168 41.2533 114.683 41.168 114.085 41.168C113.595 41.168 113.141 41.2533 112.725 41.424C112.309 41.5947 111.947 41.8453 111.637 42.176C111.328 42.5067 111.083 42.9227 110.901 43.424C110.731 43.9253 110.645 44.5013 110.645 45.152C110.645 45.8133 110.731 46.3893 110.901 46.88C111.072 47.3707 111.307 47.7813 111.605 48.112C111.915 48.4427 112.283 48.6933 112.709 48.864C113.136 49.024 113.611 49.104 114.133 49.104C114.688 49.104 115.168 49.0293 115.573 48.88C115.989 48.72 116.336 48.5333 116.613 48.32C116.72 48.3627 116.821 48.4427 116.917 48.56C117.013 48.6667 117.061 48.7947 117.061 48.944C117.061 49.168 116.933 49.3707 116.677 49.552C116.432 49.7227 116.096 49.872 115.669 50C115.243 50.1387 114.699 50.208 114.037 50.208C113.365 50.208 112.741 50.1013 112.165 49.888C111.589 49.6747 111.088 49.36 110.661 48.944C110.245 48.5173 109.915 47.9893 109.669 47.36C109.424 46.7307 109.301 45.9947 109.301 45.152C109.301 44.3093 109.424 43.5733 109.669 42.944C109.925 42.304 110.267 41.7707 110.693 41.344C111.12 40.9173 111.616 40.5973 112.181 40.384C112.757 40.1707 113.36 40.064 113.989 40.064C114.427 40.064 114.827 40.1013 115.189 40.176C115.563 40.2507 115.877 40.352 116.133 40.48C116.4 40.5973 116.603 40.736 116.741 40.896C116.891 41.0453 116.965 41.1947 116.965 41.344Z" fill="#EC597C"/>
<path d="M131.004 47.408H126.716C126.642 47.6213 126.562 47.856 126.476 48.112C126.391 48.3573 126.306 48.6027 126.22 48.848C126.146 49.0827 126.071 49.3067 125.996 49.52C125.922 49.7227 125.863 49.8933 125.82 50.032C125.671 50.096 125.495 50.128 125.292 50.128C125.122 50.128 124.967 50.0853 124.828 50C124.7 49.904 124.636 49.7547 124.636 49.552C124.636 49.456 124.652 49.36 124.684 49.264C124.716 49.1573 124.754 49.0453 124.796 48.928C124.956 48.48 125.159 47.904 125.404 47.2C125.66 46.496 125.932 45.7493 126.22 44.96C126.519 44.16 126.818 43.36 127.116 42.56C127.426 41.7493 127.708 41.024 127.964 40.384C128.05 40.3413 128.178 40.2987 128.348 40.256C128.519 40.2133 128.695 40.192 128.876 40.192C129.09 40.192 129.292 40.224 129.484 40.288C129.687 40.352 129.815 40.4587 129.868 40.608C130.124 41.2267 130.396 41.936 130.684 42.736C130.983 43.5253 131.282 44.336 131.58 45.168C131.879 46 132.162 46.8213 132.428 47.632C132.706 48.432 132.951 49.1573 133.164 49.808C133.079 49.904 132.978 49.9787 132.86 50.032C132.743 50.096 132.61 50.128 132.46 50.128C132.258 50.128 132.103 50.0853 131.996 50C131.89 49.904 131.799 49.7493 131.724 49.536L131.004 47.408ZM128.86 41.28C128.743 41.6 128.61 41.968 128.46 42.384C128.311 42.7893 128.156 43.216 127.996 43.664C127.836 44.112 127.676 44.5653 127.516 45.024C127.356 45.4827 127.207 45.92 127.068 46.336H130.668C130.508 45.856 130.343 45.376 130.172 44.896C130.002 44.4053 129.836 43.936 129.676 43.488C129.527 43.04 129.383 42.6293 129.244 42.256C129.116 41.872 129.01 41.5467 128.924 41.28H128.86Z" fill="#EC597C"/>
<path fill-rule="evenodd" clip-rule="evenodd" d="M139 30H32V28H139V30Z" fill="#EC597C"/>
<path d="M11.511 7.06877V10.2822H15.702L15.6987 20.1256C15.6825 20.8206 15.4032 21.475 14.9112 21.9654C13.8606 23.0159 12.1507 23.0159 11.1002 21.9654C10.6082 21.4734 10.3289 20.8206 10.3126 20.1256V18.8948V15.6699H7.09429H5.85696C5.16198 15.6537 4.50922 15.3744 4.01722 14.8824C2.96663 13.8318 2.96663 12.122 4.01722 11.0698C4.50922 10.5778 5.16198 10.2985 5.85696 10.2822H5.88944V7.06877H5.8391H5.80825C4.27215 7.098 2.83023 7.71179 1.74392 8.79648C-0.560229 11.1006 -0.560229 14.8483 1.74392 17.1525C2.82861 18.2372 4.27215 18.8509 5.80663 18.8802H7.09753V20.1402V20.1711C7.12676 21.7056 7.74055 23.1491 8.82524 24.2338C9.9765 25.3851 11.4899 25.9615 13.0032 25.9615C14.5166 25.9615 16.03 25.3851 17.1812 24.2338C18.2659 23.1491 18.8797 21.7056 18.9089 20.1711L18.9138 7.06552L11.511 7.06877Z" fill="#EC597C"/>
<path d="M24.2658 8.80943C23.1811 7.72474 21.7375 7.11096 20.2031 7.08173H18.9122V5.82167V5.79082C18.8829 4.25472 18.2691 2.8128 17.1845 1.72811C14.8803 -0.576037 11.1326 -0.576037 8.82847 1.72811C7.74378 2.8128 7.12999 4.25635 7.10076 5.79245L7.09589 18.898L14.4971 18.8964V15.6829H10.311L10.3142 5.83953C10.3305 5.14455 10.6098 4.49017 11.1018 3.99978C12.1524 2.9492 13.8622 2.9492 14.9144 3.99978C15.4048 4.49017 15.6857 5.14455 15.7019 5.83953V10.2952H20.1576C20.8526 10.3114 21.5053 10.5907 21.9974 11.0827C22.5072 11.5926 22.7865 12.2681 22.7865 12.9891C22.7865 13.7084 22.5056 14.3855 21.9974 14.8954C21.5053 15.3874 20.8526 15.6667 20.1576 15.6829H20.1203V18.8964H20.1755H20.2063C21.7424 18.8672 23.1843 18.2534 24.269 17.1687C25.3846 16.0531 26 14.569 26 12.9907C25.9967 11.4091 25.3813 9.92497 24.2658 8.80943Z" fill="#FFAAC6"/>
<defs>
<linearGradient id="paint0_linear" x1="48.3875" y1="4.91145" x2="43.7806" y2="22.5918" gradientUnits="userSpaceOnUse">
<stop stop-color="#EC597C"/>
<stop offset="1" stop-color="#FF719F"/>
</linearGradient>
<linearGradient id="paint1_linear" x1="64.3314" y1="9.15294" x2="60.9478" y2="22.2664" gradientUnits="userSpaceOnUse">
<stop stop-color="#EC597C"/>
<stop offset="1" stop-color="#FF719F"/>
</linearGradient>
<linearGradient id="paint2_linear" x1="78.1807" y1="9.06806" x2="74.4751" y2="21.6084" gradientUnits="userSpaceOnUse">
<stop stop-color="#EC597C"/>
<stop offset="1" stop-color="#FF719F"/>
</linearGradient>
<linearGradient id="paint3_linear" x1="92.0175" y1="5.25963" x2="85.6818" y2="20.6347" gradientUnits="userSpaceOnUse">
<stop stop-color="#EC597C"/>
<stop offset="1" stop-color="#FF719F"/>
</linearGradient>
<linearGradient id="paint4_linear" x1="106.637" y1="9.13803" x2="103.244" y2="22.2514" gradientUnits="userSpaceOnUse">
<stop stop-color="#EC597C"/>
<stop offset="1" stop-color="#FF719F"/>
</linearGradient>
<linearGradient id="paint5_linear" x1="121.509" y1="4.905" x2="115.646" y2="21.6141" gradientUnits="userSpaceOnUse">
<stop stop-color="#EC597C"/>
<stop offset="1" stop-color="#FF719F"/>
</linearGradient>
<linearGradient id="paint6_linear" x1="136.336" y1="9.898" x2="130.902" y2="26.2539" gradientUnits="userSpaceOnUse">
<stop stop-color="#EC597C"/>
<stop offset="1" stop-color="#FF719F"/>
</linearGradient>
</defs>
</svg>
